<svg xmlns="http://www.w3.org/2000/svg" width="256" height="256"><path fill="#244DB3" d="M209.018 10.505H44.983c-19.599 0-35.487 15.888-35.487 35.487v164.015c0 19.599 15.888 35.486 35.487 35.486h164.033c19.604 0 35.487-15.888 37.487-34.819V46.66c-1.999-20.266-17.888-36.155-37.485-36.155z"/><linearGradient id="a" gradientUnits="userSpaceOnUse" x1="76.999" y1="1766.167" x2="76.999" y2="1893.795" gradientTransform="translate(51 -1755)"><stop offset="0" stop-color="#fff" stop-opacity=".85"/><stop offset=".66" stop-color="#fff" stop-opacity="0"/></linearGradient><path fill="url(#a)" d="M209.018 10.505H44.983c-19.599 0-35.487 15.889-35.487 35.487v69.409c36.33 14.751 76.046 22.896 117.671 22.896 42.263 0 82.558-8.395 119.336-23.576V46.66c-1.999-20.266-17.888-36.155-37.485-36.155z"/><path fill="none" stroke="#244DB3" stroke-width="2" stroke-miterlimit="10" d="M246.503 114.721V46.66c-1.999-20.266-17.888-36.155-37.485-36.155H44.982c-19.599 0-35.486 15.889-35.486 35.487v69.409"/><g fill="#FFF"><path d="M38.564 61.967c59.982-.005 119.963-.005 179.946 0-6.72 6.552-13.286 13.25-20.037 19.773-8.226 7.967-16.243 16.13-24.464 24.104-4.674 4.645-9.492 9.156-14.051 13.911-8.17 8.03-16.403 16.004-24.515 24.086-4.124 3.564-11.214 3.43-14.942-.64-27.348-27.043-54.592-54.185-81.937-81.234zm-2.04 125.832c.02-39.287.02-78.573 0-117.859 19.745 19.45 36.89 37.469 56.572 56.979-19.05 20.62-37.826 40.608-56.572 60.88zm182.95.463c-.017-39.286-.02-78.572.001-117.858-19.746 19.45-36.89 37.468-56.574 56.978 19.052 20.621 37.828 40.61 56.573 60.88z"/><path d="M39.261 194.033l58.633-62.466c4.193 4.005 12.348 11.357 16.596 15.308 9.977 8.885 19.58 8.754 29.307-.433 3.872-3.799 10.866-10.696 14.744-14.489l56.995 62.08c-59.585.004-116.69.002-176.275 0z"/></g><linearGradient id="b" gradientUnits="userSpaceOnUse" x1="76.999" y1="1893.001" x2="76.999" y2="2000.512" gradientTransform="translate(51 -1755)"><stop offset="0" stop-opacity=".15"/><stop offset=".663" stop-opacity="0"/></linearGradient><path fill="url(#b)" d="M9.496 115.401v94.605c0 19.6 15.888 35.486 35.487 35.486h164.033c19.604 0 35.488-15.889 37.488-34.819v-95.952c-36.779 15.181-77.074 23.576-119.337 23.576-41.625.001-81.342-8.145-117.671-22.896z"/><path fill="none" stroke="#1D3D8F" stroke-width="2" stroke-miterlimit="10" d="M9.496 115.401v94.605c0 19.6 15.888 35.486 35.486 35.486h164.034c19.604 0 35.487-15.889 37.487-34.819v-95.952"/></svg>