<svg version="1.0" xmlns="http://www.w3.org/2000/svg" width="1378.667" height="1706.667" viewBox="0 0 1034 1280"><path d="M510.5.6c-63.9 6.3-113 24.8-159.8 60.1-64.8 48.7-105.6 118.9-117.4 201.8-2.7 18.8-2.4 60.4.6 79.5 5.6 36.8 14.6 64.9 31 96.5 16.9 32.8 41.6 64.4 68.3 87.6l6.8 5.8-3.3.5c-100.8 15.4-162.2 40.9-209.6 87-41.8 40.7-69.2 94.9-94.1 186.1-17.3 63.6-25.7 104.3-31.1 152-1.7 14.2-1.7 60.9-.1 74 6.9 56.2 25.7 97.5 60.6 133.4 61 62.5 164 98.2 319.1 110.6 67.9 5.4 162.1 5.8 233 1 168.4-11.4 281-48.8 347.6-115.4 39.6-39.7 61.6-87.8 69.6-152.3 2.2-17.5 2.4-68.2.4-88.3-5.8-59.5-14.9-110-27.2-150.3C968.6 651 892.7 581.9 761.5 548.5c-11.5-2.9-26.2-6.3-32.5-7.5-6.3-1.2-12.1-2.3-12.8-2.6-.8-.2 1.1-2.3 4.5-5.1 55.9-45 95.3-112.9 106.7-183.8 5.7-35.3 5-74.7-2-109-23.3-115.3-112.8-206.8-227.7-233-20.4-4.6-37.7-6.6-61.2-7-12.1-.2-23.8-.1-26 .1z" fill="#9e9e9e"/></svg>